<svg xmlns="http://www.w3.org/2000/svg" xmlns:xlink="http://www.w3.org/1999/xlink" width="6" height="105"><g fill="none" fill-rule="evenodd" stroke="none" stroke-width="1"><g><g><g><g><path fill="#ddd" d="M5,3.5 L0,0 L0,7 L5,3.5 L5,3.5 Z M5,3.5"/><path fill="#6D787A" d="M0,21 L5,17.5 L0,14 L0,21 L0,21 Z M0,21"/></g></g></g></g><g><g><g><g><path fill="#ddd" d="M5,3.5 L0,0 L0,7 L5,3.5 L5,3.5 Z M5,3.5" transform="translate(2.500000, 38.500000) scale(-1, 1) translate(-2.500000, -38.500000) translate(0.000000, 28.000000)"/><path fill="#6D787A" d="M0,21 L5,17.5 L0,14 L0,21 L0,21 Z M0,21" transform="translate(2.500000, 38.500000) scale(-1, 1) translate(-2.500000, -38.500000) translate(0.000000, 28.000000)"/></g></g></g></g><g><g><g><g><path fill="#ddd" d="M5,3.5 L0,0 L0,7 L5,3.5 L5,3.5 Z M5,3.5" transform="translate(0.000000, 56.000000)"/><path fill="#6D787A" d="M0,21 L5,17.5 L0,14 L0,21 L0,21 Z M0,21" transform="translate(0.000000, 56.000000)"/></g></g></g></g><g><g><g><g><path fill="#ddd" d="M5,3.5 L0,0 L0,7 L5,3.5 L5,3.5 Z M5,3.5" transform="translate(3.500000, 94.500000) scale(-1, 1) translate(-3.500000, -94.500000) translate(1.000000, 84.000000)"/><path fill="#6D787A" d="M0,21 L5,17.5 L0,14 L0,21 L0,21 Z M0,21" transform="translate(3.500000, 94.500000) scale(-1, 1) translate(-3.500000, -94.500000) translate(1.000000, 84.000000)"/></g></g></g></g><path fill="#ddd" d="M5,56 L5,63 L6,63 L6,56 L5,56 Z M5,56"/><path fill="#ddd" d="M0,84 L0,91 L1,91 L1,84 L0,84 Z M0,84"/><path fill="#6D787A" d="M5,70 L5,77 L6,77 L6,70 L5,70 Z M5,70"/><path fill="#6D787A" d="M0,98 L0,105 L1,105 L1,98 L0,98 Z M0,98"/></g></svg>